<?xml version="1.0" encoding="iso-8859-1"?>
<!-- Uploaded to: SVG Repo, www.svgrepo.com, Generator: SVG Repo Mixer Tools -->
<svg version="1.1" id="Layer_1" xmlns="http://www.w3.org/2000/svg" xmlns:xlink="http://www.w3.org/1999/xlink" 
	 viewBox="0 0 512 512" xml:space="preserve">
<path style="fill:#333E48;" d="M336.17,157.707h86.433c3.126,0,6.927,2.236,8.447,4.969l9.431,16.969H336.17V157.707z"/>
<path style="fill:#FF9E16;" d="M336.17,177.331h104.721c27.426,0,49.862,22.439,49.862,49.863v130.009H336.17V177.331z"/>
<path style="fill:#333E48;" d="M504.051,363.948c0,6.093-4.986,11.08-11.082,11.08h-48.017c-6.094,0-11.079-4.987-11.079-11.08
	v-14.589c0-6.095,4.986-11.081,11.079-11.081h48.017c6.096,0,11.082,4.987,11.082,11.081V363.948z"/>
<path style="fill:#0071CE;" d="M336.17,357.204H23.467V127.093c0-12.188,9.972-22.161,22.161-22.161h268.382
	c12.189,0,22.161,9.973,22.161,22.161L336.17,357.204L336.17,357.204z"/>
<circle style="fill:#333E48;" cx="125.527" cy="357.205" r="49.859"/>
<circle style="fill:#FFFFFF;" cx="125.527" cy="357.205" r="22.714"/>
<circle style="fill:#333E48;" cx="336.166" cy="357.205" r="49.859"/>
<g>
	<circle style="fill:#FFFFFF;" cx="336.176" cy="357.205" r="22.715"/>
	<path style="fill:#FFFFFF;" d="M456.394,244.275c0,6.095-4.985,11.08-11.079,11.08h-72.024c-6.096,0-11.081-4.986-11.081-11.08
		v-30.932c0-6.096,4.986-11.08,11.081-11.08h72.024c6.095,0,11.079,4.986,11.079,11.08V244.275z"/>
	<path style="fill:#FFFFFF;" d="M466.006,338.277h-10.616c-3.046,0-5.538-2.493-5.538-5.54v-17.729c0-3.047,2.492-5.541,5.538-5.541
		h10.616V338.277z"/>
</g>
<rect x="464.162" y="309.466" style="fill:#4BB6AA;" width="26.594" height="28.809"/>
<path style="fill:#FFFFFF;" d="M48.213,338.277h10.616c3.046,0,5.538-2.493,5.538-5.54v-17.729c0-3.047-2.492-5.541-5.538-5.541
	H48.213V338.277z"/>
<rect x="23.467" y="309.466" style="fill:#4BB6AA;" width="26.594" height="28.809"/>
<path style="fill:#333E48;" d="M56.392,363.948c0,6.093-4.986,11.08-11.08,11.08H19.03c-6.092,0-11.08-4.987-11.08-11.08v-14.589
	c0-6.095,4.987-11.081,11.08-11.081h26.282c6.094,0,11.08,4.987,11.08,11.081C56.392,349.359,56.392,363.948,56.392,363.948z"/>
<polygon style="fill:#0055B8;" points="336.17,153.895 23.467,239.749 23.467,288.536 336.17,202.682 "/>
<path style="fill:#1E252B;" d="M464.344,244.275v-30.932c0-10.493-8.537-19.03-19.029-19.03h-72.024
	c-10.493,0-19.031,8.537-19.031,19.03v30.932c0,10.493,8.538,19.03,19.031,19.03h72.024
	C455.807,263.305,464.344,254.768,464.344,244.275z M370.159,244.275v-30.932c0-1.697,1.434-3.131,3.132-3.131h72.024
	c1.697,0,3.13,1.434,3.13,3.131v30.932c0,1.697-1.434,3.131-3.13,3.131h-72.024C371.593,247.406,370.159,245.972,370.159,244.275z
	 M498.702,331.214v-104.02c0-30.864-24.311-56.155-54.789-57.733l-5.918-10.648c-2.917-5.248-9.391-9.056-15.393-9.056h-78.483
	v-22.663c0-16.603-13.508-30.11-30.11-30.11H45.628c-16.604,0-30.11,13.508-30.11,30.11v203.573C6.698,332.321,0,340.066,0,349.359
	v14.589c0,10.493,8.537,19.03,19.03,19.03h26.282c10.086,0,18.342-7.893,18.968-17.825h3.991
	c3.887,28.128,28.072,49.863,57.253,49.863c29.18,0,53.364-21.735,57.252-49.863h96.143c3.887,28.128,28.072,49.863,57.253,49.863
	c29.181,0,53.366-21.735,57.253-49.863h32.56c0.626,9.931,8.882,17.825,18.968,17.825h48.017c10.493,0,19.031-8.537,19.031-19.03
	v-14.589C512,340.863,506.403,333.653,498.702,331.214z M344.12,165.655l78.39-0.003c0.45,0.058,1.37,0.6,1.591,0.885l1.58,2.845
	H344.12V165.655z M48.443,363.948c0,1.697-1.434,3.131-3.131,3.131H19.03c-1.697,0-3.131-1.434-3.131-3.131v-14.589
	c0-1.698,1.434-3.132,3.131-3.132h26.282c1.697,0,3.131,1.434,3.131,3.132V363.948z M125.524,399.117
	c-23.112,0-41.914-18.802-41.914-41.914s18.802-41.914,41.914-41.914c23.111,0,41.913,18.802,41.913,41.914
	S148.634,399.117,125.524,399.117z M182.775,349.254c-3.887-28.128-28.072-49.863-57.252-49.863s-53.365,21.735-57.253,49.863
	h-3.934c-0.057-10.446-8.567-18.926-19.025-18.926H31.416V127.093c0-7.836,6.375-14.211,14.211-14.211h268.382
	c7.836,0,14.211,6.375,14.211,14.211v172.858c-25.527,3.527-45.776,23.776-49.303,49.303H182.775z M336.17,399.117
	c-23.112,0-41.914-18.802-41.914-41.914s18.802-41.914,41.914-41.914s41.914,18.802,41.914,41.914S359.282,399.117,336.17,399.117z
	 M425.929,349.254h-32.506c-3.527-25.527-23.776-45.776-49.303-49.303v-114.67h96.771c23.111,0,41.913,18.802,41.913,41.914v103.134
	h-37.851C434.495,330.327,425.985,338.809,425.929,349.254z M496.101,363.948c0,1.697-1.435,3.131-3.132,3.131h-48.017
	c-1.697,0-3.13-1.434-3.13-3.131v-14.589c0-1.698,1.434-3.132,3.13-3.132h48.017c1.698,0,3.132,1.434,3.132,3.132V363.948z"/>
</svg>